<?xml version="1.0" encoding="UTF-8"?>
<svg id="Layer_1" data-name="Layer 1" xmlns="http://www.w3.org/2000/svg" version="1.1" viewBox="0 0 984 173.7">
  <defs>
    <style>
      .cls-1 {
        fill: #6691ff;
        stroke-width: 0px;
      }
    </style>
  </defs>
  <path class="cls-1" d="M203.3,3.9c-.4-.8-1.2-1.3-2-1.3-.8,0-1.6.5-2,1.3-1,2.4-68.1,166.2-68.1,166.2h17.2c4.2,0,6.5-1.9,8.3-6.2l44.5-108.5h0l44.5,108.5c1.8,4.3,4.2,6.2,8.3,6.2h17.2S204.3,6.3,203.3,3.9Z"/>
  <rect class="cls-1" x="632.6" y="4.9" width="23.3" height="165.2"/>
  <path class="cls-1" d="M23.3,5.1h-15.3C3.4,5.1,0,8.3,0,13.5v156.6h75.6c7.6,0,10.5-3,13.7-8,3.1-4.9,7.7-13.6,7.7-13.6H23.3V5.1Z"/>
  <path class="cls-1" d="M408,121.6S317.3,6.4,315.4,4.1c-1-1.2-1.4-1.5-2.2-1.5-1.3,0-1.9,1-1.9,2.2s0,4.2,0,5v160.3h23.2V63.7s76.2,96.7,80.4,102c2.7,3.4,5,4.4,7.9,4.4h7.7V5.1h-22.7l.2,116.5Z"/>
  <path class="cls-1" d="M580.1,156.5c-3.1-4.9-6-7.7-13.1-7.9-.2,0-.3,0-.5,0h-57.4s0-52.5,0-52.5h66.9v-20.4h-66.9V26.7s57.5,0,57.5,0c7.4,0,10.2-3,13.4-7.9,3.3-5.1,7.7-13.7,7.7-13.7h-102.2v165h101.9s-2.7-5.4-5.3-10.1c-.7-1.3-1.5-2.5-2.2-3.6Z"/>
  <path class="cls-1" d="M976.3,156.5c-3.1-4.9-6-7.7-13.1-7.9-.2,0-57.9,0-57.9,0v-52.5s66.9,0,66.9,0v-20.4h-66.9V26.7s57.5,0,57.5,0c7.4,0,10.2-3,13.4-7.9,3.3-5.1,7.7-13.7,7.7-13.7h-102.2v165h101.9s-2.7-5.4-5.3-10.1c-.7-1.3-1.5-2.5-2.2-3.6Z"/>
  <path class="cls-1" d="M830.9,42c-3.1-9.5-9.3-19-16.1-25.6-5-4.9-9.4-7.8-15.8-10.8-8.4-3.8-18.5-5.7-28.8-5.7-46.6,0-70.1,39.1-70.1,87.3s6.4,51.1,22.1,67c11.1,11.3,26.8,19.4,48,19.4s47.3-14.2,55.7-31c2-4,3.6-7.1,5-11.6,3.9-12.9,4-27.8,4-43.9s0-5.7,0-5.7h-26.4c0,0-39.1.2-39.1.2,1.1,2.1,3.7,6.7,6.7,11.7,3.3,5.4,6.3,8.6,14.1,8.6h20.6s0,3.8-.4,8.3c-1,11.9-3.5,22.3-12.6,30.6-7.3,6.7-17.9,9.6-27.7,9.6-12.5,0-22.7-4.6-30.8-12.8-13.2-13.4-15.3-34.4-15.3-50.5s4.2-64.5,47-64.5c6.1,0,12.2.9,17.7,3.7,6.3,3.2,11.5,8,15.1,14,2.9,4.7,5.5,9.3,11.7,9.3h17.6c-.2-1-2-6.7-2.4-7.7Z"/>
</svg>